<svg xmlns="http://www.w3.org/2000/svg" viewBox="0 0 64 64" width="64" height="64">
  <rect width="64" height="64" rx="12" fill="#ECA413"/>
  <g transform="translate(12, 10) scale(1.7)" fill="#0A0A0F">
    <path d="M5 17c-.55 0-1-.45-1-1V2c0-.55.45-1 1-1s1 .45 1 1v14c0 .55-.45 1-1 1z"/>
    <path d="M19 17c-.55 0-1-.45-1-1V2c0-.55.45-1 1-1s1 .45 1 1v14c0 .55-.45 1-1 1z"/>
    <path d="M5 7h14c.55 0 1-.45 1-1s-.45-1-1-1H5c-.55 0-1 .45-1 1s.45 1 1 1z"/>
    <path d="M1 21h22c.55 0 1-.45 1-1s-.45-1-1-1H1c-.55 0-1 .45-1 1s.45 1 1 1z"/>
    <rect x="9" y="15" width="6" height="4" rx="1"/>
  </g>
</svg>
